:SAMPLES-PER-SECOND 30
:FULLY-SPECIFIED
:DEGREES
18
root  34.85323688 36.55520462 -14.45800301 9.145132065 -5.038918495 3.228472948
lowerback  -8.165604591 -0.7485093474 -0.5465583205
upperback  -3.891819954 -0.5175848007 -3.183811426
thorax  0.529835999 -0.09368273616 -3.020479918
lowerneck  -7.33494997 -13.16639996 -10.01920033
upperneck  13.23159981 -17.93289757 10.1267004
head  7.073339939 -8.358969688 3.100059986
lclavicle  0 -4.497500157e-015 -2.743230041e-014
lhumerus  -48.18809891 29.38269997 64.17630005
lradius  0.006620147731 -6.507048965e-006 30.25519943
lwrist  4.824992743e-007 -3.790274832e-007 -28.0760994
lhand  -3.509876637e-031 -36.9510994 -10.74730015
lfingers  90 7.125020027 -90
lthumb  94.85549164 -25.57997322 101.1303711
rclavicle  0 -4.497500157e-015 -2.743230041e-014
rhumerus  -57.24809647 -39.64899826 -48.9539032
rradius  -5.16745672e-007 2.214343908e-008 37.87730026
rwrist  -2.867388866e-005 0.1017204151 -145.5359955
rhand  -3.003050566e-031 -2.253900051 -7.899950027
rfingers  -90 -7.125020027 -90
rthumb  -86.5965271 -7.800549507 -66.33798981
rfemur  -11.45683956 15.82660294 12.80982876
rtibia  -0.336676389 -0.9809348583 18.89515686
rfoot  1.208767533 -21.68688202 -35.31565094
rtoes  4.070858479 19.60247612 -101.9794693
lfemur  -6.535526752 -16.12880707 -20.84996033
ltibia  3.892443419 -0.3339671791 12.24534702
lfoot  0.6207438111 -23.47444534 36.87097549
ltoes  -8.749847412 -18.05533791 -116.4087143
19
root  34.85416803 36.55539685 -14.4575134 9.168387413 -5.036595345 3.231128693
lowerback  -8.114159584 -0.7497219443 -0.5801250339
upperback  -3.91147995 -0.5175594091 -3.185139656
thorax  0.4813300073 -0.09434495121 -3.001739979
lowerneck  -7.276619911 -13.18350029 -10.05189991
upperneck  13.1796999 -17.95470238 10.13449955
head  7.052680016 -8.37460041 3.108799934
lclavicle  0 -4.497500157e-015 -2.743230041e-014
lhumerus  -48.19990158 29.4029007 64.15640259
lradius  0.006620147731 -6.507048965e-006 30.26803017
lwrist  4.824992743e-007 -3.790274832e-007 -28.0401001
lhand  -3.506825818e-031 -36.92409897 -10.78789997
lfingers  90 7.125020027 -90
lthumb  94.8514328 -25.6207428 101.1051636
rclavicle  0 -4.497500157e-015 -2.743230041e-014
rhumerus  -57.00630188 -39.01850128 -49.60319901
rradius  -5.16745672e-007 2.214343908e-008 38.49000168
rwrist  -2.867388866e-005 0.1017204151 -146.2310028
rhand  -3.011834106e-031 -2.355969906 -7.768260002
rfingers  -90 -7.125020027 -90
rthumb  -86.56182098 -7.915615559 -66.43015289
rfemur  -11.5055418 15.84553337 12.80722427
rtibia  -0.3479085863 -0.962993443 18.93237877
rfoot  1.201843381 -21.64578819 -35.31587982
rtoes  4.095572472 19.60297394 -102.0531616
lfemur  -6.518716812 -16.15135002 -20.86841583
ltibia  3.921905518 -0.3443988264 12.19006729
lfoot  0.6125238538 -23.41716003 36.87988281
ltoes  -8.685248375 -18.08569527 -116.2004547
20
root  34.85479881 36.55554403 -14.45710941 9.167808533 -5.032366276 3.237103224
lowerback  -8.075679779 -0.7508837581 -0.5919229388
upperback  -3.940589905 -0.5169086456 -3.186833382
thorax  0.4301199913 -0.09504633397 -3.002619982
lowerneck  -7.22480011 -13.20880032 -10.03520012
upperneck  13.13059998 -17.98730278 10.10130024
head  7.026509762 -8.39577961 3.096369982
lclavicle  0 -4.497500157e-015 -2.743230041e-014
lhumerus  -48.20320129 29.41469955 64.146698
lradius  0.006620147731 -6.507048965e-006 30.26859856
lwrist  4.824992743e-007 -3.790274832e-007 -28.00250053
lhand  -3.509023437e-031 -36.96559906 -10.75549984
lfingers  90 7.125020027 -90
lthumb  94.86407471 -25.58751869 101.1466599
rclavicle  0 -4.497500157e-015 -2.743230041e-014
rhumerus  -56.8973999 -38.47460175 -50.14500046
rradius  -5.16745672e-007 2.214343908e-008 39.20679855
rwrist  -2.867388866e-005 0.1017204151 -147.1640015
rhand  -3.020947919e-031 -2.505899906 -7.631400108
rfingers  -90 -7.125020027 -90
rthumb  -86.53413391 -8.033126831 -66.56845856
rfemur  -11.50833321 15.83793354 12.80922413
rtibia  -0.3519468307 -0.957082808 18.94732666
rfoot  1.212126732 -21.63435364 -35.27679062
rtoes  4.069046974 19.60344124 -101.9740677
lfemur  -6.499341488 -16.1808033 -20.88492584
ltibia  3.937875032 -0.3728219569 12.1619215
lfoot  0.5972829461 -23.33676529 36.8719635
ltoes  -8.680600166 -18.08786964 -116.1854782
21
root  34.85517427 36.55565217 -14.4569397 9.178620338 -5.035168648 3.258965015
lowerback  -8.05415535 -0.7520441413 -0.594584465
upperback  -3.948719978 -0.5159651637 -3.189399958
thorax  0.4103530049 -0.09581038356 -2.993885994
lowerneck  -7.185939789 -13.24190044 -10.06849957
upperneck  13.08250046 -18.03219795 10.12180042
head  7.014140129 -8.420550346 3.104640007
lclavicle  0 -4.497500157e-015 -2.743230041e-014
lhumerus  -48.16880035 29.35829926 64.21779633
lradius  0.006620147731 -6.507048965e-006 30.28939819
lwrist  4.824992743e-007 -3.790274832e-007 -27.88080025
lhand  -3.510584031e-031 -36.96220016 -10.73719978
lfingers  90 7.125020027 -90
lthumb  94.85853577 -25.56964684 101.141304
rclavicle  0 -4.497500157e-015 -2.743230041e-014
rhumerus  -56.73490143 -37.84620285 -50.71479797
rradius  -5.16745672e-007 2.214343908e-008 39.89749908
rwrist  -2.867388866e-005 0.1017204151 -148.5859985
rhand  -3.028642325e-031 -2.642750025 -7.515810013
rfingers  -90 -7.125020027 -90
rthumb  -86.51304626 -8.132058144 -66.69525146
rfemur  -11.53656483 15.84442616 12.78607464
rtibia  -0.3575204611 -0.965649724 18.98212433
rfoot  1.190376878 -21.64420319 -35.29602432
rtoes  4.054803848 19.60387802 -101.9316101
lfemur  -6.474601269 -16.2094326 -20.92797852
ltibia  3.977671385 -0.3914622664 12.10041142
lfoot  0.5971114039 -23.26866913 36.89566803
ltoes  -8.688411713 -18.08836937 -116.21064
